<svg width="28" height="26" viewBox="0 0 28 26" fill="none" xmlns="http://www.w3.org/2000/svg">
<path d="M2.24175 4.26573C2.08742 3.84934 1.4682 3.59743 0.858936 3.70279C0.249423 3.80838 -0.119261 4.23151 0.0351525 4.648L7.47124 24.6995C7.6019 25.0519 8.06522 25.2865 8.57376 25.2865C8.66643 25.2865 8.76049 25.2787 8.85439 25.2624C9.46357 25.157 9.83242 24.7337 9.67801 24.3174L2.24175 4.26573Z" fill="#FFE600"/>
<path d="M26.9935 9.91339C25.7816 6.85525 24.5686 3.79733 23.3565 0.73918C23.2251 0.408152 22.9948 0.0530734 22.129 0.01756C15.3138 -0.319762 10.8387 4.31862 4.02342 3.98124C3.4856 3.93595 3.13994 4.12734 3.27125 4.45837C4.48345 7.51646 5.68628 10.5764 6.90818 13.6326C7.10428 14.1231 7.59786 14.3089 8.13584 14.3543C14.951 14.6916 19.4262 10.0533 26.2416 10.3906C26.7793 10.4358 27.1248 10.2445 26.9935 9.91339ZM21.6453 1.17203C21.9796 2.01575 22.3144 2.85942 22.6487 3.70315C21.2151 3.7354 19.9498 3.93309 18.609 4.27648C18.2747 3.43275 17.9399 2.58903 17.6057 1.74536C18.9463 1.40208 20.2116 1.20423 21.6453 1.17203ZM7.6014 10.6314C7.22096 9.67284 6.84117 8.71403 6.46114 7.75539C7.96811 7.72555 9.30529 7.50236 10.704 7.12452C10.3693 6.28079 10.0348 5.43707 9.70053 4.59334C11.0678 4.17567 12.3575 3.67561 13.649 3.15915C13.9833 4.00282 14.3181 4.84655 14.6525 5.69027C13.3609 6.20668 12.0712 6.7069 10.704 7.12452C11.0841 8.08316 11.464 9.04191 11.8441 10.0005C10.4453 10.3783 9.10828 10.6015 7.6014 10.6314ZM12.8623 12.5688C12.5228 11.7127 12.1835 10.8566 11.8441 10.0004C13.2018 9.58591 14.4823 9.09007 15.7647 8.57726C16.1041 9.4334 16.4435 10.2895 16.7828 11.1456C15.5006 11.6585 14.22 12.1542 12.8623 12.5688ZM15.7924 8.56624C15.4126 7.60755 15.0325 6.64885 14.6525 5.69016C15.9439 5.17488 17.2345 4.68179 18.609 4.27653C18.9892 5.23517 19.3692 6.19387 19.7491 7.1525C18.375 7.55787 17.0839 8.0509 15.7924 8.56624ZM20.7911 9.7143C20.4516 8.85827 20.1122 8.00213 19.7727 7.14599C21.1056 6.8063 22.3645 6.61098 23.7887 6.57923C24.1282 7.43537 24.4676 8.29146 24.8071 9.14749C23.3828 9.1793 22.1238 9.37457 20.7911 9.7143Z" fill="#FFE600"/>
</svg>
