<?xml version='1.0' encoding='utf-8'?>
<!DOCTYPE svg PUBLIC '-//W3C//DTD SVG 1.1//EN' 'http://www.w3.org/Graphics/SVG/1.1/DTD/svg11.dtd'>
<svg version="1.1" xmlns="http://www.w3.org/2000/svg" viewBox="0 0 512 512" xmlns:xlink="http://www.w3.org/1999/xlink" enable-background="new 0 0 512 512">
  <g>
    <g>
      <rect width="130.6" x="190.7" y="139.3" height="64.2"/>
      <path d="m381.7,52h-20.5c-4.3,0-8.3-1.5-10.6-3.9-21.6-22.9-65.9-37.1-94.6-37.1-28.3,0-70.2,14-91.2,37.5-2,2.2-5.4,3.5-9.3,3.5h-25.3c-29.5,0-53.5,24-53.5,53.5v251.4c0,29.5 24,53.5 53.5,53.5h13.9l-38.9,58.9c-6.2,9.4-3.6,22.1 5.8,28.3 3.5,2.3 19.9,8.6 28.3-5.8l14.8-22.4h203.6l14.8,22.4c8.5,14.1 24.8,8.1 28.3,5.8 9.4-6.2 12-18.9 5.8-28.3l-38.9-58.9h13.9c29.5,0 53.5-24 53.5-53.5v-251.4c0.1-29.5-23.9-53.5-53.4-53.5zm-226.3,265.7c0-12.4 10.1-22.5 22.5-22.5s22.5,10.1 22.5,22.5c0,12.4-10.1,22.5-22.5,22.5s-22.5-10.1-22.5-22.5zm25.8,110.9l12-18.2h125.7l12,18.2h-149.7zm154.3-88.4c-12.4,0-22.5-10.1-22.5-22.5 0-12.4 10.1-22.5 22.5-22.5 12.4,0 22.5,10.1 22.5,22.5 0,12.5-10,22.5-22.5,22.5zm26.6-116.3c0,11.3-9.1,20.4-20.4,20.4h-171.4c-11.3,0-20.4-9.1-20.4-20.4v-105c0-11.3 9.1-20.4 20.4-20.4h171.4c11.3,0 20.4,9.1 20.4,20.4v105z"/>
    </g>
  </g>
</svg>
